<svg xmlns="http://www.w3.org/2000/svg" viewBox="0 0 400 260" width="400" height="260" role="img" aria-label="Matrix kihivas">
  <rect width="400" height="260" fill="#F1E7E7"/>
  <rect x="8" y="8" width="384" height="244" fill="none" stroke="#B98A8A" stroke-width="1.5" rx="6"/>
  <!-- matrix racs cimkekkel -->
  <g transform="translate(150,46)">
    <g stroke="#9C6A6A" stroke-width="2" opacity="0.6">
      <line x1="20" y1="20" x2="80" y2="80"/><line x1="80" y1="20" x2="20" y2="80"/>
      <line x1="140" y1="20" x2="80" y2="80"/><line x1="80" y1="140" x2="80" y2="80"/>
    </g>
    <g>
      <circle cx="20" cy="20" r="13" fill="#FBF7F0" stroke="#3A3632" stroke-width="2.5"/>
      <circle cx="80" cy="20" r="10" fill="#FBF7F0" stroke="#3A3632" stroke-width="2.5"/>
      <circle cx="140" cy="20" r="13" fill="#FBF7F0" stroke="#3A3632" stroke-width="2.5"/>
      <circle cx="20" cy="80" r="10" fill="#FBF7F0" stroke="#3A3632" stroke-width="2.5"/>
      <circle cx="80" cy="80" r="17" fill="#C9A24B" stroke="#3A3632" stroke-width="2.5"/>
      <circle cx="140" cy="80" r="10" fill="#FBF7F0" stroke="#3A3632" stroke-width="2.5"/>
      <circle cx="20" cy="140" r="13" fill="#FBF7F0" stroke="#3A3632" stroke-width="2.5"/>
      <circle cx="80" cy="140" r="10" fill="#B98A8A" stroke="#3A3632" stroke-width="2.5"/>
      <circle cx="140" cy="140" r="13" fill="#FBF7F0" stroke="#3A3632" stroke-width="2.5"/>
    </g>
  </g>
  <text x="32" y="118" font-family="Georgia, serif" font-size="26" fill="#3A3632">Mátrix</text>
  <text x="32" y="146" font-family="Georgia, serif" font-size="20" fill="#9C6A6A">kihívás</text>
  <path d="M30 168 q40 -14 78 0" fill="none" stroke="#B98A8A" stroke-width="2"/>
</svg>
