<svg xmlns="http://www.w3.org/2000/svg" viewBox="0 0 150 210" width="150" height="210" role="img" aria-label="Igaz tortenet memoar">
  <rect x="10" y="6" width="130" height="198" rx="6" fill="#5E6E52"/>
  <rect x="10" y="6" width="14" height="198" rx="6" fill="#45533C"/>
  <rect x="34" y="22" width="92" height="166" fill="none" stroke="#D8E0CC" stroke-width="2"/>
  <!-- toll motivum -->
  <g transform="translate(80,84) rotate(20)" stroke="#E6C878" stroke-width="2" fill="none">
    <path d="M0 -28 C 14 -10 14 14 0 30 C -14 14 -14 -10 0 -28 Z"/>
    <line x1="0" y1="-22" x2="0" y2="26"/>
    <path d="M0 -10 l9 6 M0 0 l9 6 M0 10 l9 6 M0 -10 l-9 6 M0 0 l-9 6 M0 10 l-9 6"/>
  </g>
  <text x="80" y="136" text-anchor="middle" font-family="Georgia, serif" font-size="12.5" fill="#F4ECDD">IGAZ TÖRTÉNET</text>
  <text x="80" y="156" text-anchor="middle" font-family="Georgia, serif" font-size="12.5" fill="#F4ECDD">/ MEMOÁR</text>
</svg>
