<svg xmlns="http://www.w3.org/2000/svg" viewBox="0 0 170 240" width="170" height="240" role="img" aria-label="Honap ajanlata konyv">
  <rect x="14" y="8" width="142" height="224" rx="8" fill="#3A4A3F"/>
  <rect x="14" y="8" width="16" height="224" rx="8" fill="#2A352D"/>
  <rect x="40" y="26" width="104" height="188" fill="none" stroke="#E6C878" stroke-width="2"/>
  <!-- babér + csillag -->
  <g transform="translate(92,96)" fill="none" stroke="#E6C878" stroke-width="2">
    <path d="M-26 18 C-30 0 -22 -16 -8 -24 M26 18 C30 0 22 -16 8 -24"/>
    <path d="M-22 12 q-6 0 -9 -5 M-18 2 q-6 0 -9 -5 M-12 -8 q-6 0 -9 -5"/>
    <path d="M22 12 q6 0 9 -5 M18 2 q6 0 9 -5 M12 -8 q6 0 9 -5"/>
  </g>
  <path d="M92 70 l4 11 l11 4 l-11 4 l-4 11 l-4 -11 l-11 -4 l11 -4 Z" fill="#E6C878"/>
  <text x="92" y="160" text-anchor="middle" font-family="Georgia, serif" font-size="14" letter-spacing="1" fill="#F4ECDD">A HÓNAP</text>
  <text x="92" y="180" text-anchor="middle" font-family="Georgia, serif" font-size="14" letter-spacing="1" fill="#F4ECDD">KÖNYVE</text>
</svg>
