<svg xmlns="http://www.w3.org/2000/svg" viewBox="0 0 140 140" width="140" height="140" role="img" aria-label="Nyeremenyjatek">
  <circle cx="70" cy="70" r="66" fill="#F4ECDD"/>
  <g transform="translate(34,40)" stroke="#3A3632" stroke-width="3" stroke-linejoin="round">
    <rect x="0" y="22" width="72" height="50" rx="4" fill="#FBF7F0"/>
    <rect x="-4" y="14" width="80" height="16" rx="3" fill="#E6C878"/>
    <line x1="36" y1="14" x2="36" y2="72"/>
    <path d="M36 14 C28 14 16 8 22 0 C30 -4 36 8 36 14 Z" fill="#B98A8A"/>
    <path d="M36 14 C44 14 56 8 50 0 C42 -4 36 8 36 14 Z" fill="#B98A8A"/>
  </g>
  <g fill="#C9A24B"><path d="M30 30 l2 5 l5 2 l-5 2 l-2 5 l-2 -5 l-5 -2 l5 -2 Z"/><circle cx="112" cy="60" r="3"/></g>
</svg>
